<mxfile host="Electron" agent="Mozilla/5.0 (Macintosh; Intel Mac OS X 10_15_7) AppleWebKit/537.36 (KHTML, like Gecko) draw.io/24.7.5 Chrome/126.0.6478.183 Electron/31.3.0 Safari/537.36" version="24.7.5">
  <diagram name="페이지-1" id="QbZ7rnkIiPjWDBc_15rH">
    <mxGraphModel dx="781" dy="894" grid="1" gridSize="10" guides="1" tooltips="1" connect="1" arrows="1" fold="1" page="1" pageScale="1" pageWidth="827" pageHeight="1169" math="0" shadow="0">
      <root>
        <mxCell id="0" />
        <mxCell id="1" parent="0" />
        <mxCell id="4twyukbgo4xkF76WRwDC-4" style="edgeStyle=orthogonalEdgeStyle;rounded=0;orthogonalLoop=1;jettySize=auto;html=1;entryX=0.5;entryY=0;entryDx=0;entryDy=0;endArrow=block;endFill=1;" edge="1" parent="1" source="4twyukbgo4xkF76WRwDC-1" target="4twyukbgo4xkF76WRwDC-3">
          <mxGeometry relative="1" as="geometry" />
        </mxCell>
        <mxCell id="4twyukbgo4xkF76WRwDC-7" value="애플리케이션 지표" style="edgeLabel;html=1;align=center;verticalAlign=middle;resizable=0;points=[];" vertex="1" connectable="0" parent="4twyukbgo4xkF76WRwDC-4">
          <mxGeometry x="-0.675" y="2" relative="1" as="geometry">
            <mxPoint y="-4" as="offset" />
          </mxGeometry>
        </mxCell>
        <mxCell id="4twyukbgo4xkF76WRwDC-1" value="프론트엔드 서버" style="rounded=0;whiteSpace=wrap;html=1;" vertex="1" parent="1">
          <mxGeometry x="60" y="70" width="100" height="40" as="geometry" />
        </mxCell>
        <mxCell id="4twyukbgo4xkF76WRwDC-5" style="edgeStyle=orthogonalEdgeStyle;rounded=0;orthogonalLoop=1;jettySize=auto;html=1;entryX=0.5;entryY=0;entryDx=0;entryDy=0;endArrow=block;endFill=1;" edge="1" parent="1" source="4twyukbgo4xkF76WRwDC-2" target="4twyukbgo4xkF76WRwDC-3">
          <mxGeometry relative="1" as="geometry" />
        </mxCell>
        <mxCell id="4twyukbgo4xkF76WRwDC-6" value="애플리케이션 지표" style="edgeLabel;html=1;align=center;verticalAlign=middle;resizable=0;points=[];" vertex="1" connectable="0" parent="4twyukbgo4xkF76WRwDC-5">
          <mxGeometry x="-0.6125" relative="1" as="geometry">
            <mxPoint y="-9" as="offset" />
          </mxGeometry>
        </mxCell>
        <mxCell id="4twyukbgo4xkF76WRwDC-2" value="프론트엔드 서버" style="rounded=0;whiteSpace=wrap;html=1;" vertex="1" parent="1">
          <mxGeometry x="200" y="70" width="100" height="40" as="geometry" />
        </mxCell>
        <mxCell id="4twyukbgo4xkF76WRwDC-3" value="지표 서버" style="rounded=0;whiteSpace=wrap;html=1;" vertex="1" parent="1">
          <mxGeometry x="130" y="200" width="100" height="40" as="geometry" />
        </mxCell>
      </root>
    </mxGraphModel>
  </diagram>
</mxfile>
